<svg xmlns="http://www.w3.org/2000/svg" width="490" height="54" fill="none"><path fill="#7E573E" d="M19.195 20.66c1.134 0 2.017.098 3.052.532l.043 1.946c-.364-.364-.7-.616-1.316-.812-.49-.154-1.093-.224-1.765-.224-2.814 0-4.577 1.876-4.577 4.298 0 2.436 1.792 4.298 4.577 4.298.672 0 1.26-.084 1.765-.28.727-.28 1.008-.532 1.33-.896l-.056 2.044c-1.037.434-1.919.574-3.053.574-3.71 0-6.188-2.492-6.188-5.74s2.59-5.74 6.188-5.74Zm8.425 1.554v3.57c.35.084.644.098.994.098 1.638 0 2.338-.798 2.338-1.82 0-1.05-.7-1.848-2.114-1.848H27.62ZM25.898 20.8h3.234c2.114 0 3.402 1.456 3.402 3.248 0 1.442-.77 2.492-2.1 2.968.238.21.378.406.56.63.812 1.064 1.666 2.38 2.296 3.318.308.448.532.742.882 1.036h-2.24a2.373 2.373 0 0 0-.378-.854 219.98 219.98 0 0 0-2.03-2.954c-.238-.322-.63-.742-1.106-.882a2.877 2.877 0 0 0-.798-.098v3.864c0 .406.07.644.21.924h-1.932c.14-.28.21-.518.21-.924v-9.352c0-.406-.07-.644-.21-.924Zm15.532 2.086-1.512 3.654h3.108l-1.596-3.654Zm3.584 8.19-1.358-3.108h-4.34l-1.288 3.108c-.112.28-.154.63-.154.924h-1.89c.196-.28.35-.546.504-.924L40.772 20.8h1.386l4.508 10.276c.168.378.308.644.504.924h-1.988c0-.364-.056-.658-.168-.924Zm6.959-3.962v3.962c0 .406.07.644.21.924h-1.932c.14-.28.21-.518.21-.924v-9.352c0-.406-.07-.644-.21-.924h5.936l.07 1.722c-.322-.182-.644-.294-1.218-.294h-3.066v3.458h3.108c.406 0 .644-.07.924-.21v1.848c-.28-.14-.518-.21-.924-.21h-3.108Zm12.386-4.942v8.904c0 .406.07.644.21.924h-1.932c.14-.28.21-.518.21-.924v-8.904h-2.618c-.574 0-.896.112-1.218.294l.056-1.666h9.072l.056 1.666c-.322-.182-.644-.294-1.218-.294h-2.618Zm6.91-1.372h5.935l.07 1.722c-.322-.182-.644-.294-1.218-.294H72.99v3.36h3.178c.406 0 .644-.07.924-.21v1.848c-.28-.14-.517-.21-.924-.21H72.99v3.556h3.403c.573 0 1.007-.112 1.33-.294L77.33 32h-6.063c.14-.28.21-.518.21-.924v-9.352c0-.406-.07-.644-.21-.924Zm11.888 1.428v7.532c0 .42.043.7.449.826.336.112.952.126 1.778.126 2.617 0 4.326-1.89 4.326-4.284s-1.709-4.2-4.368-4.2h-2.184ZM81.436 20.8h4.101c3.444 0 5.825 2.338 5.825 5.614s-2.436 5.67-5.88 5.67c-1.695 0-2.213-.084-3.052-.084h-.995c.14-.28.21-.518.21-.924v-9.352c0-.406-.07-.644-.21-.924Zm324.078 0v10.276c0 .406.07.644.21.924h-1.932c.14-.28.21-.518.21-.924v-8.694l-.476.056c-.574.07-.896.112-1.218.294l.056-1.652 3.15-.28Zm8.629 6.944-2.954 2.8h3.738c.574 0 .91-.112 1.232-.294l-.07 1.75h-6.888v-1.428l3.864-3.808c.938-.924 1.442-1.554 1.442-2.562 0-1.288-.882-2.086-2.072-2.086-1.218 0-1.848.546-2.31 1.218l-.56-1.526c.714-.686 1.666-1.148 2.898-1.148 2.114 0 3.598 1.484 3.598 3.528 0 1.386-.686 2.38-1.918 3.556Zm12.663-6.02 2.184 3.374 2.198-3.374c.196-.294.35-.644.35-.924h2.002c-.238.28-.476.588-.7.924l-3.15 4.858v4.494c0 .406.07.644.21.924h-1.932c.14-.28.21-.518.21-.924v-4.424L425 21.724a7.005 7.005 0 0 0-.714-.924h2.128c0 .28.21.644.392.924Zm9.672-.924h5.936l.07 1.722c-.322-.182-.644-.294-1.218-.294H438.2v3.36h3.178c.406 0 .644-.07.924-.21v1.848c-.28-.14-.518-.21-.924-.21H438.2v3.556h3.402c.574 0 1.008-.112 1.33-.294L442.54 32h-6.062c.14-.28.21-.518.21-.924v-9.352c0-.406-.07-.644-.21-.924Zm14.493 2.086-1.512 3.654h3.108l-1.596-3.654Zm3.584 8.19-1.358-3.108h-4.34l-1.288 3.108c-.112.28-.154.63-.154.924h-1.89c.196-.28.35-.546.504-.924l4.284-10.276h1.386l4.508 10.276c.168.378.308.644.504.924h-1.988c0-.364-.056-.658-.168-.924Zm6.96-8.862v3.57c.35.084.644.098.994.098 1.638 0 2.338-.798 2.338-1.82 0-1.05-.7-1.848-2.114-1.848h-1.218Zm-1.722-1.414h3.234c2.114 0 3.402 1.456 3.402 3.248 0 1.442-.77 2.492-2.1 2.968.238.21.378.406.56.63.812 1.064 1.666 2.38 2.296 3.318.308.448.532.742.882 1.036h-2.24a2.373 2.373 0 0 0-.378-.854 219.98 219.98 0 0 0-2.03-2.954c-.238-.322-.63-.742-1.106-.882a2.877 2.877 0 0 0-.798-.098v3.864c0 .406.07.644.21.924h-1.932c.14-.28.21-.518.21-.924v-9.352c0-.406-.07-.644-.21-.924Zm13.264 6.034c-2.114-.812-2.688-1.89-2.688-3.15 0-1.862 1.596-3.024 3.612-3.024.924 0 1.554.126 2.282.462l.056 1.918c-.35-.35-.658-.546-1.008-.686a3.274 3.274 0 0 0-1.316-.252c-1.26 0-2.058.63-2.058 1.582 0 .868.63 1.26 1.918 1.792.896.364 1.568.672 2.03 1.134.616.616.896 1.386.896 2.31 0 1.988-1.526 3.22-3.612 3.22-1.064 0-1.82-.168-2.576-.49l-.084-1.89c.35.35.658.504 1.008.658.392.168.952.28 1.554.28 1.344 0 2.142-.714 2.142-1.722 0-.868-.308-1.428-2.156-2.142Z"/><g fill="#7E573E" clip-path="url(#a)"><path d="M124 54v-1.56c6.572 0 7.291-1.014 7.291-6.505V8.776c0-5.49-.719-6.503-7.291-6.503V.712h25.982v1.56c-6.572 0-7.291 1.014-7.291 6.504v37.146c0 5.49.719 6.503 7.291 6.503v1.561H124V54Zm35.086 0v-1.56c6.572 0 7.291-1.014 7.291-6.505V8.776c0-5.49-.719-6.503-7.291-6.503V.712h25.899c19.715 0 30.88 9.488 30.88 26.329 0 16.84-11.483 26.959-31.281 26.959h-25.498Zm43.317-26.877c0-15.992-7.042-24.85-19.244-24.85h-5.382v41.855c0 7.6 2.144 8.311 7.844 8.311 10.529 0 16.796-9.488 16.796-25.316h-.014ZM303.205.712h16.546v1.56c-1.508 0-2.85 1.178-6.571 7.052l-14.098 22.331v15.677c0 4.628.955 5.093 8.716 5.093v1.561h-28.832v-1.56c7.761 0 8.716-.466 8.716-5.094V34.394l-14.97-25.166c-3.486-5.874-5.146-6.969-6.419-6.969V.712h23.201v1.56c-4.994 0-7.526.234-7.526 2.123 0 .78.47 1.958 1.425 3.532l13.78 22.961 13.779-21.55c1.342-2.04 1.979-3.45 1.979-4.464 0-2.423-3.57-2.588-9.74-2.588V.712h.014Zm60.86 43.964c2.448 5.956 3.32 7.763 5.935 7.763V54h-23.838v-1.56c5.064 0 6.89-1.096 6.89-3.369 0-1.177-.47-2.588-1.19-4.395l-4.123-10.105h-19.715l-4.122 10.42c-.72 1.725-1.107 3.135-1.107 4.148 0 2.506 2.296 3.286 8.716 3.286v1.561h-17.903v-1.56c3.874 0 5.783-1.26 8.08-6.97L336.81 7.832 333.558 0h11.954l18.525 44.676h.028Zm-35.404-11.679h18.456l-9.339-22.81-9.103 22.81h-.014ZM271.149 52.44c-2.615 0-3.486-1.808-5.935-7.764L246.675 0h-11.953l3.251 7.832-15.122 37.624c-2.296 5.723-4.192 6.983-8.08 6.983V54h26.425v-1.616c-4.51-.205-6.198-1.095-6.198-3.245 0-1.013.401-2.423 1.107-4.148l4.123-10.42h8.674l4.123 10.105c.72 1.807 1.19 3.218 1.19 4.395 0 1.985-1.397 3.08-5.147 3.313V54h22.095v-1.56h-.014Zm-37.258-6.984c-.968 2.424-1.867 4.04-2.877 5.107-1.425 1.506-3.736 1.89-5.603.959-1.024-.52-1.453-1.287-1.453-2.369 0-1.013.401-2.423 1.107-4.148l4.123-10.42h9.089l-4.386 10.899v-.028Zm5.009-12.459h-9.09l9.104-22.81 4.62 11.268-4.634 11.528v.014Zm1.964 0 3.653-9.16 3.749 9.16h-7.402Z"/></g><defs><clipPath id="a"><path fill="#fff" d="M124 0h246v54H124z"/></clipPath></defs></svg>