<svg xmlns="http://www.w3.org/2000/svg" width="41" height="72" fill="none"><path fill="#7E573E" d="m20.71 50.185 9.984 20.37a2.608 2.608 0 0 0 2.345 1.454H41a16.34 16.34 0 0 1-1.89-3.419l-18.4-37.55a.24.24 0 0 0-.428 0L1.89 68.59A16.16 16.16 0 0 1 0 72.01h7.961c.999 0 1.908-.564 2.345-1.454l9.985-20.37a.24.24 0 0 1 .427 0h-.009Zm7.987-32.881c0 .687.045 1.084.116 1.56h-2.532L14.737 4.123v13.18c0 .687.115 1.084.356 1.56h-3.147c.24-.476.357-.873.357-1.56V1.559c0-.687-.116-1.083-.357-1.559h2.862l11.456 14.529V1.559c0-.687-.116-1.083-.357-1.559h3.147c-.24.476-.357.872-.357 1.56v15.753-.009Z"/></svg>