<svg width="246" height="54" viewBox="0 0 246 54" fill="none" xmlns="http://www.w3.org/2000/svg">
<g clip-path="url(#clip0_686_252)">
<path d="M0 53.9999V52.4391C6.57162 52.4391 7.29104 51.4259 7.29104 45.9355V8.77632C7.29104 3.28595 6.57162 2.27277 0 2.27277V0.711914H25.9821V2.27277C19.4105 2.27277 18.6911 3.28595 18.6911 8.77632V45.9219C18.6911 51.4122 19.4105 52.4254 25.9821 52.4254V53.9863H0V53.9999Z" fill="#7E573E"/>
<path d="M35.0859 53.9999V52.4391C41.6576 52.4391 42.377 51.4259 42.377 45.9355V8.77632C42.377 3.28595 41.6576 2.27277 35.0859 2.27277V0.711914H60.985C80.6999 0.711914 91.8647 10.2003 91.8647 27.041C91.8647 43.8818 80.3817 53.9999 60.5838 53.9999H35.0859ZM78.4033 27.1232C78.4033 11.1313 71.3613 2.27277 59.1588 2.27277H53.777V44.1282C53.777 51.7271 55.9214 52.4391 61.6215 52.4391C72.1499 52.4391 78.4171 42.9508 78.4171 27.1232H78.4033Z" fill="#7E573E"/>
<path d="M179.205 0.711914H195.751V2.27277C194.243 2.27277 192.901 3.45025 189.18 9.32398L175.082 31.6551V47.3321C175.082 51.9599 176.037 52.4254 183.798 52.4254V53.9863H154.966V52.4254C162.727 52.4254 163.682 51.9599 163.682 47.3321V34.3935L148.712 9.22814C145.226 3.35441 143.566 2.25907 142.293 2.25907V0.711914H165.494V2.27277C160.5 2.27277 157.968 2.50552 157.968 4.39498C157.968 5.1754 158.438 6.35289 159.393 7.92743L173.173 30.8884L186.952 9.33768C188.294 7.29761 188.931 5.88737 188.931 4.87419C188.931 2.45076 185.361 2.28646 179.191 2.28646V0.711914H179.205Z" fill="#7E573E"/>
<path d="M240.065 44.676C242.513 50.6318 243.385 52.4391 246 52.4391V54H222.162V52.4391C227.226 52.4391 229.052 51.3438 229.052 49.071C229.052 47.8935 228.582 46.4833 227.862 44.676L223.739 34.5715H204.024L199.902 44.9909C199.182 46.716 198.795 48.1263 198.795 49.1395C198.795 51.645 201.091 52.4255 207.511 52.4255V53.9863H189.608V52.4255C193.482 52.4255 195.391 51.1658 197.688 45.4564L212.81 7.83164L209.558 0H221.512L240.037 44.676H240.065ZM204.661 32.997H223.117L213.778 10.1866L204.675 32.997H204.661Z" fill="#7E573E"/>
<path d="M147.149 52.4391C144.534 52.4391 143.663 50.6318 141.214 44.676L122.675 0H110.722L113.973 7.83164L98.8511 45.4564C96.5545 51.1795 94.6591 52.4391 90.7715 52.4391V54H117.196V52.3844C112.686 52.179 110.998 51.289 110.998 49.1395C110.998 48.1263 111.399 46.716 112.105 44.9909L116.228 34.5715H124.902L129.025 44.676C129.745 46.4833 130.215 47.8935 130.215 49.071C130.215 51.0563 128.818 52.1516 125.068 52.3844V54H147.163V52.4391H147.149ZM109.891 45.4564C108.923 47.8798 108.024 49.4954 107.014 50.5634C105.589 52.0695 103.278 52.4528 101.411 51.5218C100.387 51.0015 99.9579 50.2348 99.9579 49.1531C99.9579 48.14 100.359 46.7297 101.065 45.0046L105.188 34.5852H114.277L109.891 45.4838V45.4564ZM114.9 32.997H105.81L114.914 10.1866L119.534 21.4549L114.9 32.9833V32.997ZM116.864 32.997L120.517 23.8372L124.266 32.997H116.864Z" fill="#7E573E"/>
</g>
<defs>
<clipPath id="clip0_686_252">
<rect width="246" height="54" fill="white"/>
</clipPath>
</defs>
</svg>
