<svg width="41" height="72" viewBox="0 0 41 72" fill="none" xmlns="http://www.w3.org/2000/svg">
<path d="M20.7095 50.185L30.6943 70.5551C31.1311 71.4449 32.0404 72.0088 33.0389 72.0088H41C40.269 70.978 39.6895 69.9912 39.11 68.5903L20.7095 31.0396C20.6204 30.8634 20.3707 30.8634 20.2816 31.0396L1.88998 68.5903C1.3105 69.9912 0.739943 70.9692 0 72.0088H7.96108C8.95956 72.0088 9.86889 71.4449 10.3057 70.5551L20.2905 50.185C20.3796 50.0088 20.6293 50.0088 20.7184 50.185H20.7095Z" fill="#7E573E"/>
<path d="M28.6973 17.304C28.6973 17.9912 28.7419 18.3877 28.8132 18.8634H26.2814L14.7365 4.12335V17.304C14.7365 17.9912 14.8524 18.3877 15.0931 18.8634H11.9461C12.1868 18.3877 12.3027 17.9912 12.3027 17.304V1.55947C12.3027 0.872247 12.1868 0.475771 11.9461 0H14.8078L26.2635 14.5286V1.55947C26.2635 0.872247 26.1476 0.475771 25.9069 0H29.0539C28.8132 0.475771 28.6973 0.872247 28.6973 1.55947V17.3128V17.304Z" fill="#7E573E"/>
</svg>
